<?xml version="1.0" standalone="no"?>
<!DOCTYPE svg PUBLIC "-//W3C//DTD SVG 20010904//EN"
 "http://www.w3.org/TR/2001/REC-SVG-20010904/DTD/svg10.dtd">
<svg version="1.0" xmlns="http://www.w3.org/2000/svg"
 width="310.000000pt" height="310.000000pt" viewBox="0 0 310.000000 310.000000"
 preserveAspectRatio="xMidYMid meet">
<metadata>
Created by potrace 1.11, written by Peter Selinger 2001-2013
</metadata>
<g transform="translate(0.000000,310.000000) scale(0.100000,-0.100000)"
fill="#000000" stroke="none">
<path d="M587 2323 c-4 -3 -7 -309 -7 -680 l0 -674 98 3 97 3 3 288 2 287 190
0 190 0 0 95 0 95 -190 0 -190 0 0 195 0 195 288 2 287 3 0 95 0 95 -381 3
c-209 1 -383 -1 -387 -5z"/>
<path d="M1747 2323 c-4 -3 -7 -309 -7 -680 l0 -673 390 0 390 0 0 290 0 290
-100 0 -100 0 0 -195 0 -195 -190 0 -190 0 0 195 0 195 193 2 192 3 3 93 3 92
-196 0 -195 0 0 195 0 195 190 0 190 0 2 -192 3 -193 95 0 95 0 0 290 0 290
-381 3 c-209 1 -383 -1 -387 -5z"/>
</g>
</svg>
